<?xml version="1.0" encoding="UTF-8" standalone="yes"?>
<svg version="1.2" width="200" height="200" baseProfile="tiny-ps" xmlns="http://www.w3.org/2000/svg">
  <title>bimi-svg-tiny-12-ps</title>
  <path d="M0 0 C1.34868164 -0.0309375 1.34868164 -0.0309375 2.72460938 -0.0625 C12.64494235 -0.11988443 19.46745997 2.20124234 26.6796875 9.07421875 C29.97886813 12.64940087 33.1164294 16.50172276 34.125 21.35546875 C34.64891418 23.84873889 35.08358333 25.24293671 36.6875 27.25 C40.31152252 28.87222455 43.95349348 29.95646888 47.76171875 31.05078125 C59.28469944 34.399031 70.79893793 42.37639437 77.6875 52.25 C77.6875 53.24 77.6875 54.23 77.6875 55.25 C73.84155707 56.24377808 71.09911273 56.16589978 67.23046875 55.32421875 C66.19986328 55.10443359 65.16925781 54.88464844 64.10742188 54.65820312 C63.04072266 54.42037109 61.97402344 54.18253906 60.875 53.9375 C59.81990234 53.71126953 58.76480469 53.48503906 57.67773438 53.25195312 C51.9861135 52.02142824 46.32729685 50.69906722 40.6875 49.25 C40.72101563 50.4771875 40.75453125 51.704375 40.7890625 52.96875 C40.78200492 58.98180473 39.96526093 64.81452461 39.0625 70.75 C38.92199219 71.82636719 38.78148437 72.90273437 38.63671875 74.01171875 C37.14301839 83.82234269 33.47822567 90.73178815 25.4375 96.75 C24.58671875 97.3996875 23.7359375 98.049375 22.859375 98.71875 C20.6875 100.25 20.6875 100.25 18.6875 101.25 C18.00277335 103.13764903 18.00277335 103.13764903 17.5625 105.3125 C17.39492187 106.04597656 17.22734375 106.77945313 17.0546875 107.53515625 C16.93351562 108.10105469 16.81234375 108.66695313 16.6875 109.25 C15.6975 109.25 14.7075 109.25 13.6875 109.25 C13.0275 108.26 12.3675 107.27 11.6875 106.25 C10.5428125 106.745 10.5428125 106.745 9.375 107.25 C6.6875 108.25 6.6875 108.25 3.6875 108.25 C3.6875 109.24 3.6875 110.23 3.6875 111.25 C1.51875748 110.74396008 -0.31217627 110.25016187 -2.3125 109.25 C-1.9825 109.91 -1.6525 110.57 -1.3125 111.25 C-1.27227609 113.5829866 -1.26929753 115.91706666 -1.3125 118.25 C4.27948677 118.85708113 7.37452207 116.86151453 11.8125 113.8125 C17.5642598 110.10303172 21.747716 108.45941258 28.7109375 108.421875 C32.22450903 108.2189916 35.10552819 107.30581697 38.4375 106.1875 C43.48558475 104.52702554 47.39622789 103.55115274 52.6875 104.25 C53.6775 105.735 53.6775 105.735 54.6875 107.25 C60.25208112 102.23126335 64.55039106 96.9156849 68.45288086 90.5559082 C70.25597104 87.75336477 71.22249494 86.3975686 74.45703125 85.37109375 C75.19308594 85.33113281 75.92914063 85.29117188 76.6875 85.25 C79.05515365 88.80148048 79.16235691 90.0621662 78.6875 94.25 C77.48848988 96.72042424 76.32549925 98.80628402 74.8125 101.0625 C74.41409912 101.67053467 74.01569824 102.27856934 73.60522461 102.9050293 C69.50397539 108.92194647 64.29018756 114.94865622 57.6875 118.25 C57.73874023 118.84014893 57.78998047 119.43029785 57.84277344 120.03833008 C58.06268956 122.71178408 58.25042236 125.38655617 58.4375 128.0625 C58.51871094 128.99126953 58.59992188 129.92003906 58.68359375 130.87695312 C58.77060547 132.2159668 58.77060547 132.2159668 58.859375 133.58203125 C58.9222168 134.40421143 58.98505859 135.2263916 59.04980469 136.07348633 C58.6875 138.25 58.6875 138.25 57.10693359 139.9140625 C54.07406668 141.58871919 51.15827542 142.41713051 47.8046875 143.29296875 C46.82147018 143.55295403 46.82147018 143.55295403 45.81838989 143.81819153 C44.43943837 144.18111188 43.05934935 144.53973451 41.67822266 144.89428711 C39.56035368 145.43805107 37.44604311 145.99418193 35.33203125 146.55273438 C25.03589268 149.25 25.03589268 149.25 22.6875 149.25 C22.94574756 152.54277227 23.22172161 155.83386499 23.5 159.125 C23.60538086 160.47271484 23.60538086 160.47271484 23.71289062 161.84765625 C24.51477216 171.14948206 26.13467301 179.93303809 27.6875 189.25 C6.2375 189.25 -15.2125 189.25 -37.3125 189.25 C-36.22211631 181.61731418 -36.22211631 181.61731418 -35.3203125 178.06640625 C-34.04434526 172.49026368 -33.62573293 166.88093599 -33.1875 161.1875 C-33.10113281 160.13111328 -33.01476562 159.07472656 -32.92578125 157.98632812 C-32.71577735 155.4079469 -32.51146996 152.82925211 -32.3125 150.25 C-33.9149312 150.9976627 -35.51146927 151.75796318 -37.10546875 152.5234375 C-37.99516357 152.94544434 -38.8848584 153.36745117 -39.80151367 153.80224609 C-42.96460458 155.62598251 -44.80635853 157.80446885 -46.99609375 160.66796875 C-48.77702088 162.8082521 -50.84197992 164.01473996 -53.3125 165.25 C-57.03257056 161.13135045 -61.3125 155.04263039 -61.3125 149.25 C-61.9725 149.25 -62.6325 149.25 -63.3125 149.25 C-63.57546875 149.80429688 -63.8384375 150.35859375 -64.109375 150.9296875 C-65.4527376 153.52045822 -66.97679342 155.9250119 -68.5625 158.375 C-71.92010195 163.60497537 -75.14585619 168.90266375 -78.3125 174.25 C-83.1875 173.375 -83.1875 173.375 -84.3125 172.25 C-84.47896696 162.59491616 -79.45743634 152.67663104 -72.8984375 145.671875 C-72.14820313 144.95515625 -71.39796875 144.2384375 -70.625 143.5 C-68.55633813 141.56447865 -68.55633813 141.56447865 -67.3125 139.25 C-67.53819169 135.23478729 -68.67433132 131.90175102 -70.3125 128.25 C-60.51058908 119.53719029 -43.6246593 109.10756701 -30.125 109 C-29.196875 109.0825 -28.26875 109.165 -27.3125 109.25 C-27.3125 107.93 -27.3125 106.61 -27.3125 105.25 C-28.9625 104.59 -30.6125 103.93 -32.3125 103.25 C-32.9725 104.24 -33.6325 105.23 -34.3125 106.25 C-35.6325 105.92 -36.9525 105.59 -38.3125 105.25 C-37.9825 103.27 -37.6525 101.29 -37.3125 99.25 C-38.9625 97.93 -40.6125 96.61 -42.3125 95.25 C-43.2096875 95.7140625 -43.2096875 95.7140625 -44.125 96.1875 C-46.3125 97.25 -46.3125 97.25 -49.3125 98.25 C-49.51801329 94.55076076 -48.99498981 92.50281363 -47.3125 89.25 C-47.6425 88.59 -47.9725 87.93 -48.3125 87.25 C-49.3025 86.92 -50.2925 86.59 -51.3125 86.25 C-51.36148438 85.693125 -51.41046875 85.13625 -51.4609375 84.5625 C-51.8390054 80.70360004 -52.29929519 77.04313583 -53.375 73.3125 C-54.87392141 67.74188162 -55.14265814 61.74047443 -53.3125 56.25 C-54.02792969 56.60827881 -54.74335937 56.96655762 -55.48046875 57.33569336 C-58.75183481 58.96529283 -62.03194646 60.57648123 -65.3125 62.1875 C-66.43785156 62.75146484 -67.56320313 63.31542969 -68.72265625 63.89648438 C-74.68340567 66.80714272 -79.64813138 68.99681933 -86.3125 69.25 C-87.03125 67.58203125 -87.03125 67.58203125 -87.3125 65.25 C-80.84825811 53.52458346 -71.0340592 45.33334085 -59.3125 39.25 C-56.4140625 38.5234375 -56.4140625 38.5234375 -54.3125 38.25 C-54.27125 36.97125 -54.23 35.6925 -54.1875 34.375 C-53.1064974 24.92733345 -46.20230553 16.46191769 -39.3125 10.25 C-27.81048699 2.51622796 -13.57734036 0.076871 0 0 Z M-22.3125 107.25 C-22.6425 108.9 -22.9725 110.55 -23.3125 112.25 C-22.04858512 113.25873016 -20.77609117 114.25671822 -19.5 115.25 C-18.79230469 115.806875 -18.08460937 116.36375 -17.35546875 116.9375 C-15.29654001 118.52025683 -15.29654001 118.52025683 -12.3125 118.25 C-12.3125 116.27 -12.3125 114.29 -12.3125 112.25 C-13.6325 112.25 -14.9525 112.25 -16.3125 112.25 C-16.3125 110.93 -16.3125 109.61 -16.3125 108.25 C-19.2825 107.755 -19.2825 107.755 -22.3125 107.25 Z " fill="#6C4E3C" transform="translate(105.3125,10.75)"/>
  <path d="M0 0 C1.34868164 -0.0309375 1.34868164 -0.0309375 2.72460938 -0.0625 C12.64494235 -0.11988443 19.46745997 2.20124234 26.6796875 9.07421875 C29.97886813 12.64940087 33.1164294 16.50172276 34.125 21.35546875 C34.64891418 23.84873889 35.08358333 25.24293671 36.6875 27.25 C40.31152252 28.87222455 43.95349348 29.95646888 47.76171875 31.05078125 C59.28469944 34.399031 70.79893793 42.37639437 77.6875 52.25 C77.6875 53.24 77.6875 54.23 77.6875 55.25 C73.84155707 56.24377808 71.09911273 56.16589978 67.23046875 55.32421875 C66.19986328 55.10443359 65.16925781 54.88464844 64.10742188 54.65820312 C63.04072266 54.42037109 61.97402344 54.18253906 60.875 53.9375 C59.81990234 53.71126953 58.76480469 53.48503906 57.67773438 53.25195312 C51.9861135 52.02142824 46.32729685 50.69906722 40.6875 49.25 C40.74357422 51.08111328 40.74357422 51.08111328 40.80078125 52.94921875 C40.79717826 59.08270688 39.84970549 65.01932596 38.875 71.0625 C38.70935547 72.18076172 38.54371094 73.29902344 38.37304688 74.45117188 C38.20224609 75.52560547 38.03144531 76.60003906 37.85546875 77.70703125 C37.70360107 78.67616455 37.5517334 79.64529785 37.39526367 80.64379883 C36.63463261 83.44467383 35.56982556 85.06882104 33.6875 87.25 C33.378125 85.8578125 33.378125 85.8578125 33.0625 84.4375 C31.94303808 80.98995905 31.94303808 80.98995905 28.5625 79.375 C27.139375 78.818125 27.139375 78.818125 25.6875 78.25 C25.99877516 76.66642541 26.31157289 75.08315007 26.625 73.5 C26.79902344 72.61828125 26.97304687 71.7365625 27.15234375 70.828125 C27.46241663 69.33434327 27.7984581 67.84455993 28.20117188 66.37304688 C28.71797986 64.11694132 28.89460631 62.01403803 29.00390625 59.703125 C29.04580078 58.85878906 29.08769531 58.01445313 29.13085938 57.14453125 C29.17017578 56.27183594 29.20949219 55.39914063 29.25 54.5 C29.31477539 53.16775391 29.31477539 53.16775391 29.38085938 51.80859375 C29.48663615 49.62254037 29.58872546 47.43637911 29.6875 45.25 C6.77163478 41.78044287 -15.72913485 44.89743838 -37.96875 50.48046875 C-41.3125 51.25 -41.3125 51.25 -44.3125 51.25 C-45.97357215 60.38589682 -46.05367465 69.34118239 -43.3125 78.25 C-45.6225 79.57 -47.9325 80.89 -50.3125 82.25 C-56.29723282 65.20419847 -56.29723282 65.20419847 -53.3125 56.25 C-54.02792969 56.60827881 -54.74335937 56.96655762 -55.48046875 57.33569336 C-58.75183481 58.96529283 -62.03194646 60.57648123 -65.3125 62.1875 C-66.43785156 62.75146484 -67.56320313 63.31542969 -68.72265625 63.89648438 C-74.68340567 66.80714272 -79.64813138 68.99681933 -86.3125 69.25 C-87.03125 67.58203125 -87.03125 67.58203125 -87.3125 65.25 C-80.84825811 53.52458346 -71.0340592 45.33334085 -59.3125 39.25 C-56.4140625 38.5234375 -56.4140625 38.5234375 -54.3125 38.25 C-54.27125 36.97125 -54.23 35.6925 -54.1875 34.375 C-53.1064974 24.92733345 -46.20230553 16.46191769 -39.3125 10.25 C-27.81048699 2.51622796 -13.57734036 0.076871 0 0 Z " fill="#6F503A" transform="translate(105.3125,10.75)"/>
  <path d="M0 0 C1.77020508 -0.01836914 1.77020508 -0.01836914 3.57617188 -0.03710938 C9.89428069 -0.04771616 15.39703714 0.29845537 21.4375 2.1875 C21.86956693 13.55326057 21.99283892 23.54008132 17.4375 34.1875 C16.4375 35.1875 16.4375 35.1875 13.875 35.25 C13.070625 35.229375 12.26625 35.20875 11.4375 35.1875 C12.4275 36.1775 13.4175 37.1675 14.4375 38.1875 C12.6875 43.0625 12.6875 43.0625 10.4375 44.1875 C8.3125 43.75 8.3125 43.75 6.4375 43.1875 C7.4275 44.5075 8.4175 45.8275 9.4375 47.1875 C8.1875 48.75 8.1875 48.75 6.4375 50.1875 C4.4375 49.9375 4.4375 49.9375 2.4375 49.1875 C1.4475 48.8575 0.4575 48.5275 -0.5625 48.1875 C0.0975 49.8375 0.7575 51.4875 1.4375 53.1875 C-5.3125 57.1875 -5.3125 57.1875 -7.5625 57.1875 C-7.830625 56.548125 -8.09875 55.90875 -8.375 55.25 C-9.44917752 52.85618314 -9.44917752 52.85618314 -12.5625 52.1875 C-11.9025 54.1675 -11.2425 56.1475 -10.5625 58.1875 C-12.8725 58.1875 -15.1825 58.1875 -17.5625 58.1875 C-17.5625 56.2075 -17.5625 54.2275 -17.5625 52.1875 C-18.5525 53.8375 -19.5425 55.4875 -20.5625 57.1875 C-23.5325 56.6925 -23.5325 56.6925 -26.5625 56.1875 C-25.9025 53.8775 -25.2425 51.5675 -24.5625 49.1875 C-25.6453125 50.4559375 -25.6453125 50.4559375 -26.75 51.75 C-29.5625 54.1875 -29.5625 54.1875 -32.375 54 C-33.096875 53.731875 -33.81875 53.46375 -34.5625 53.1875 C-34.5625 49.1875 -34.5625 49.1875 -33.5625 46.1875 C-34.284375 46.72375 -35.00625 47.26 -35.75 47.8125 C-38.5625 49.1875 -38.5625 49.1875 -41.3125 48.625 C-43.5625 47.1875 -43.5625 47.1875 -44.5 45.3125 C-44.5756712 42.73967933 -43.88418051 41.36438554 -42.5625 39.1875 C-44.5425 39.8475 -46.5225 40.5075 -48.5625 41.1875 C-48.5625 37.1875 -48.5625 37.1875 -47.5625 35.1875 C-49.2125 34.8575 -50.8625 34.5275 -52.5625 34.1875 C-55.56179432 25.93944063 -55.98491875 16.36219165 -52.5625 8.1875 C-49.8671875 6.734375 -49.8671875 6.734375 -46.4375 5.9375 C-45.18324219 5.63714844 -43.92898437 5.33679687 -42.63671875 5.02734375 C-41.27960928 4.74276201 -39.92150088 4.46290786 -38.5625 4.1875 C-37.87623535 4.04328613 -37.1899707 3.89907227 -36.48291016 3.75048828 C-24.2224968 1.20208812 -12.51764968 0.00685899 0 0 Z " fill="#EFEEDF" transform="translate(113.5625,53.8125)"/>
  <path d="M0 0 C2 0 2 0 3.59301758 1.55175781 C5.48917243 4.85119228 5.43395959 7.37722806 5.51171875 11.171875 C5.54483154 12.4206543 5.57794434 13.66943359 5.61206055 14.95605469 C5.63695557 16.53805664 5.66185059 18.12005859 5.6875 19.75 C5.790625 24.7825 5.89375 29.815 6 35 C16.23 35.66 26.46 36.32 37 37 C36.97295373 27.0675454 36.97295373 27.0675454 36.84741211 17.13623047 C36.86553955 15.89244629 36.88366699 14.64866211 36.90234375 13.3671875 C36.89710693 12.09987793 36.89187012 10.83256836 36.88647461 9.52685547 C38.54861876 4.26236646 42.31208876 2.55870009 47 0 C46.99777939 0.57247971 46.99555878 1.14495941 46.99327087 1.73478699 C46.97095207 7.75441863 46.95598383 13.7740383 46.94506836 19.79370117 C46.94007468 22.03296385 46.93327743 24.27222333 46.92456055 26.51147461 C46.80996552 43.78207375 46.80996552 43.78207375 48 61 C40.46471226 63.27587531 33.13712136 64.45883639 25.3125 65.1875 C24.45382324 65.27112793 23.59514648 65.35475586 22.71044922 65.44091797 C14.14575144 66.17206988 5.58767736 66.07386299 -3 66 C-2.9062702 59.49342418 -2.79881657 52.98716993 -2.68261719 46.48095703 C-2.64475987 44.27592879 -2.60983916 42.07084781 -2.578125 39.86572266 C-2.38304903 26.46034554 -1.80827926 13.29117129 0 0 Z " fill="#89A9D6" transform="translate(78,125)"/>
  <path d="M0 0 C1.25006836 -0.01836914 1.25006836 -0.01836914 2.52539062 -0.03710938 C11.08384511 -0.05740611 16.08653761 2.00082083 22.37109375 7.828125 C26.8091891 12.60639522 30.5625 17.54967751 30.5625 24.1875 C29.82016113 24.17178955 29.07782227 24.1560791 28.31298828 24.13989258 C4.5357349 23.70728018 -18.35260259 25.07832107 -41.4375 31.1875 C-43.28927964 31.6146502 -45.14304524 32.0334404 -47 32.4375 C-48.134375 32.685 -49.26875 32.9325 -50.4375 33.1875 C-50.15196307 26.47738214 -47.37216134 22.49728533 -43.4375 17.1875 C-42.839375 16.300625 -42.24125 15.41375 -41.625 14.5 C-31.2008029 3.48013449 -14.6398136 0.01127006 0 0 Z " fill="#F9E471" transform="translate(105.4375,13.8125)"/>
  <path d="M0 0 C2.06400471 -0.00221143 4.12749335 -0.02054823 6.19140625 -0.03930664 C25.4411806 -0.12359063 41.85639433 4.88079255 56.80078125 17.18530273 C57.82520207 18.4999661 58.83000614 19.83054317 59.80078125 21.18530273 C52.80854426 20.73820029 46.58974547 19.41726793 39.92578125 17.31030273 C-3.8824099 4.24942707 -47.8209606 13.27149784 -87.79199219 34.04858398 C-90.19921875 35.18530273 -90.19921875 35.18530273 -92.19921875 35.18530273 C-87.90653936 22.1672859 -72.6195716 14.13660244 -61.19921875 8.18530273 C-42.98910202 -0.4069551 -19.77643774 -0.00236334 0 0 Z " fill="#F9E471" transform="translate(115.19921875,40.814697265625)"/>
  <path d="M0 0 C-0.2826818 4.2943575 -0.56935522 8.58842489 -0.85888672 12.88232422 C-0.99414929 14.9121989 -1.12414695 16.94242234 -1.25390625 18.97265625 C-1.33511719 20.19855469 -1.41632813 21.42445313 -1.5 22.6875 C-1.5721875 23.80511719 -1.644375 24.92273438 -1.71875 26.07421875 C-2.20208635 31.10225944 -2.20208635 31.10225944 -3 33 C-4.78515625 34.01953125 -4.78515625 34.01953125 -7.0625 34.8125 C-11.67188482 36.6401064 -14.68714642 39.12805387 -18.17578125 42.609375 C-20 44 -20 44 -24 44 C-25.81859145 40.25292432 -27.62880659 36.50186217 -29.4375 32.75 C-29.95376953 31.68652344 -30.47003906 30.62304688 -31.00195312 29.52734375 C-31.49501953 28.50253906 -31.98808594 27.47773438 -32.49609375 26.421875 C-32.95169678 25.47924805 -33.4072998 24.53662109 -33.87670898 23.56542969 C-34.84173682 21.36144958 -35.51444731 19.34804584 -36 17 C-30.14596114 12.39731589 -24.02781026 8.84695894 -17.3125 5.6875 C-16.60037354 5.35041016 -15.88824707 5.01332031 -15.15454102 4.66601562 C-5.00124388 0 -5.00124388 0 0 0 Z " fill="#F0EEDF" transform="translate(76,124)"/>
  <path d="M0 0 C2.47194757 9.46802559 4.20008172 18.19599587 4 28 C-2.81751567 30.39875551 -9.72146181 32.34181845 -16.70263672 34.19799805 C-17.45689941 34.40207275 -18.21116211 34.60614746 -18.98828125 34.81640625 C-19.66415283 34.99631104 -20.34002441 35.17621582 -21.03637695 35.36157227 C-23.15084439 36.04904365 -25.03730506 36.96099066 -27 38 C-27.02465392 33.46102295 -27.04283789 28.92208457 -27.05493164 24.38305664 C-27.0599714 22.83780234 -27.0668032 21.29255284 -27.07543945 19.74731445 C-27.08752076 17.53074971 -27.09323173 15.31424782 -27.09765625 13.09765625 C-27.10281754 12.4028566 -27.10797882 11.70805695 -27.11329651 10.99220276 C-27.11349277 9.3277067 -27.06189129 7.66334501 -27 6 C-25.50141969 4.50141969 -24.00305701 4.6117927 -21.921875 4.31640625 C-21.09042969 4.19330078 -20.25898438 4.07019531 -19.40234375 3.94335938 C-17.64997274 3.69173025 -15.89737128 3.44170028 -14.14453125 3.19335938 C-9.49382599 2.50184465 -4.49073945 0 0 0 Z " fill="#EFEEDF" transform="translate(155,119)"/>
  <path d="M0 0 C-0.33 1.65 -0.66 3.3 -1 5 C0.98 4.67 2.96 4.34 5 4 C4.67 6.31 4.34 8.62 4 11 C7.11771927 12.60339848 8.39011689 13.18974141 11.8125 12.125 C12.8953125 11.568125 12.8953125 11.568125 14 11 C13.67 12.98 13.34 14.96 13 17 C14.65 17.33 16.3 17.66 18 18 C18.45375 17.34 18.9075 16.68 19.375 16 C19.91125 15.34 20.4475 14.68 21 14 C21.66 14 22.32 14 23 14 C22.125 18.75 22.125 18.75 21 21 C22.98 21.33 24.96 21.66 27 22 C27.28875 21.195625 27.5775 20.39125 27.875 19.5625 C29 17 29 17 31 16 C30.41632611 22.30367803 28.95928381 27.98660063 27 34 C25.68 34 24.36 34 23 34 C23 32.68 23 31.36 23 30 C21.02 29.67 19.04 29.34 17 29 C16.67 30.32 16.34 31.64 16 33 C14.68 32.67 13.36 32.34 12 32 C12 30.35 12 28.7 12 27 C10.35 26.34 8.7 25.68 7 25 C6.34 25.99 5.68 26.98 5 28 C3.68 27.67 2.36 27.34 1 27 C1.33 25.02 1.66 23.04 2 21 C0.35 19.68 -1.3 18.36 -3 17 C-3.8971875 17.4640625 -3.8971875 17.4640625 -4.8125 17.9375 C-7 19 -7 19 -10 20 C-10.20551329 16.30076076 -9.68248981 14.25281363 -8 11 C-8.33 10.34 -8.66 9.68 -9 9 C-9.99 8.67 -10.98 8.34 -12 8 C-12 6.68 -12 5.36 -12 4 C-7.99873708 0.57034607 -5.24242317 -0.4992784 0 0 Z " fill="#AE856E" transform="translate(66,89)"/>
  <path d="M0 0 C3.0856556 1.15190859 5.30572561 2.22292492 8 4.1875 C10.74571433 6.19930499 10.74571433 6.19930499 13.3125 6 C16.62202059 4.76855048 19.81910928 3.34761394 23.01171875 1.83984375 C25 1 25 1 27 1 C27.02917228 4.22914752 27.04685663 7.45826083 27.0625 10.6875 C27.07087891 11.59951172 27.07925781 12.51152344 27.08789062 13.45117188 C27.09272461 14.78051758 27.09272461 14.78051758 27.09765625 16.13671875 C27.10551147 17.35427856 27.10551147 17.35427856 27.11352539 18.59643555 C27 21 27 21 26 26 C17.75 25.67 9.5 25.34 1 25 C-0.125 12.625 -0.125 12.625 -0.0625 6.3125 C-0.05347656 5.11238281 -0.04445313 3.91226563 -0.03515625 2.67578125 C-0.02355469 1.79277344 -0.01195313 0.90976563 0 0 Z " fill="#ECEADB" transform="translate(86,133)"/>
  <path d="M0 0 C1 1 1 1 1.4375 3.625 C0.81348533 8.43882742 -1.43165077 10.82250444 -5 14 C-6.56691074 15.00523755 -8.15092619 15.98425567 -9.75 16.9375 C-13.1775503 19.06315724 -14.59668944 20.42143016 -15.5625 24.375 C-15.7790625 26.169375 -15.7790625 26.169375 -16 28 C-16.99 28 -17.98 28 -19 28 C-19.66 27.01 -20.32 26.02 -21 25 C-21.763125 25.33 -22.52625 25.66 -23.3125 26 C-26 27 -26 27 -29 27 C-29.66 24.36 -30.32 21.72 -31 19 C-28.69 17.68 -26.38 16.36 -24 15 C-24.33 13.35 -24.66 11.7 -25 10 C-23.88625 10.20625 -22.7725 10.4125 -21.625 10.625 C-20.42875 10.74875 -19.2325 10.8725 -18 11 C-17.34 10.34 -16.68 9.68 -16 9 C-16.66 7.68 -17.32 6.36 -18 5 C-16.8553125 5.1546875 -16.8553125 5.1546875 -15.6875 5.3125 C-14.800625 5.209375 -13.91375 5.10625 -13 5 C-11.1375562 2.59141286 -11.1375562 2.59141286 -10 0 C-10.99 -0.33 -11.98 -0.66 -13 -1 C-13 -1.66 -13 -2.32 -13 -3 C-7.84420413 -4.93342345 -4.40170419 -2.65336374 0 0 Z " fill="#6C4D3B" transform="translate(138,92)"/>
  <path d="M0 0 C2.31794536 3.86324227 2.28897463 6.02282239 3 11 C-15.81 11 -34.62 11 -54 11 C-53.67 8.69 -53.34 6.38 -53 4 C-52.06953857 3.98541748 -51.13907715 3.97083496 -50.18041992 3.95581055 C-24.94501839 3.57266577 -24.94501839 3.57266577 0 0 Z " fill="#89A9D6" transform="translate(126,189)"/>
  <path d="M0 0 C0 1.32 0 2.64 0 4 C1.55851755 4.82011312 3.12201716 5.63076213 4.6875 6.4375 C5.55761719 6.88996094 6.42773438 7.34242187 7.32421875 7.80859375 C13.6243288 10.61375224 21.75365724 11.42485255 28.3515625 9.2109375 C31.2353515 7.79604477 33.71414646 6.22233053 36.25 4.25 C38 3 38 3 42 3 C41.796875 4.8046875 41.796875 4.8046875 41 7 C38.890625 8.6328125 38.890625 8.6328125 36.25 10.125 C35.38890625 10.62257813 34.5278125 11.12015625 33.640625 11.6328125 C25.80716437 15.68859833 18.20220498 16.56547835 9.625 13.984375 C4.99052605 12.09878021 0.91477138 10.14102833 -3 7 C-3.99 7.66 -4.98 8.32 -6 9 C-5.38983051 3.50847458 -5.38983051 3.50847458 -3.5625 1.125 C-2 0 -2 0 0 0 Z " fill="#775A47" transform="translate(79,81)"/>
  <path d="M0 0 C1 1 1 1 1.4375 3.625 C0.82265035 8.36812584 -1.71114369 10.69156716 -5 14 C-9.66861981 12.39516194 -14.09258167 10.02509806 -18 7 C-18 6.34 -18 5.68 -18 5 C-16.8553125 5.1546875 -16.8553125 5.1546875 -15.6875 5.3125 C-14.800625 5.209375 -13.91375 5.10625 -13 5 C-11.1375562 2.59141286 -11.1375562 2.59141286 -10 0 C-10.99 -0.33 -11.98 -0.66 -13 -1 C-13 -1.66 -13 -2.32 -13 -3 C-7.84420413 -4.93342345 -4.40170419 -2.65336374 0 0 Z " fill="#6D4C3A" transform="translate(138,92)"/>
  <path d="M0 0 C-0.33 1.65 -0.66 3.3 -1 5 C0.98 4.67 2.96 4.34 5 4 C4.49396008 6.16874252 4.00016187 7.99967627 3 10 C2.278125 10.391875 1.55625 10.78375 0.8125 11.1875 C-2.39956972 13.25750049 -4.32838417 15.59263735 -6.66796875 18.57421875 C-7.32732422 19.27998047 -7.32732422 19.27998047 -8 20 C-8.66 20 -9.32 20 -10 20 C-10.20551329 16.30076076 -9.68248981 14.25281363 -8 11 C-8.33 10.34 -8.66 9.68 -9 9 C-9.99 8.67 -10.98 8.34 -12 8 C-12 6.68 -12 5.36 -12 4 C-7.99873708 0.57034607 -5.24242317 -0.4992784 0 0 Z " fill="#AD836D" transform="translate(66,89)"/>
  <path d="M0 0 C0 0.33 0 0.66 0 1 C-2.64 1 -5.28 1 -8 1 C-8 1.66 -8 2.32 -8 3 C-8.97888184 3.05945801 -8.97888184 3.05945801 -9.97753906 3.12011719 C-23.80741227 3.99689724 -37.18120417 5.43279266 -50.70263672 8.4921875 C-54.7879852 9.39521883 -58.8946999 10.19341981 -63 11 C-62.67 10.01 -62.34 9.02 -62 8 C-59.96899414 7.14038086 -59.96899414 7.14038086 -57.28515625 6.46484375 C-56.29805664 6.2136377 -55.31095703 5.96243164 -54.29394531 5.70361328 C-53.22756836 5.4507959 -52.16119141 5.19797852 -51.0625 4.9375 C-49.42619629 4.54280518 -49.42619629 4.54280518 -47.75683594 4.14013672 C-31.76631337 0.41088996 -16.37449121 -0.30766267 0 0 Z " fill="#846848" transform="translate(124,51)"/>
  <path d="M0 0 C0 0.33 0 0.66 0 1 C2.31 1.33 4.62 1.66 7 2 C7 2.33 7 2.66 7 3 C6.02728149 3.06731323 6.02728149 3.06731323 5.03491211 3.13598633 C-8.96307287 4.13115073 -22.38495501 5.5301463 -36 9 C-36 8.34 -36 7.68 -36 7 C-29.70157048 4.73748513 -23.43936844 3.09639855 -16.875 1.8125 C-16.02035156 1.63525391 -15.16570312 1.45800781 -14.28515625 1.27539062 C-9.42585059 0.30875455 -4.95299512 -0.19462989 0 0 Z " fill="#886A43" transform="translate(94,39)"/>
  <path d="M0 0 C3.84177074 0.30329769 6.09427672 1.52475424 9 4 C7.549046 7.82524236 5.61818068 9.19090966 2 11 C1.34 11 0.68 11 0 11 C-3.07692308 6.8974359 -3.07692308 6.8974359 -2.8125 3.8125 C-2 2 -2 2 0 0 Z " fill="#6C4C39" transform="translate(122,101)"/>
  <path d="M0 0 C3.36939433 0.33693943 5.42910583 1.88819408 8 4 C6.52307692 8.67692308 6.52307692 8.67692308 3.875 10.3125 C2.946875 10.6528125 2.946875 10.6528125 2 11 C0.02 9.35 -1.96 7.7 -4 6 C-2.84826645 3.53199953 -1.95216435 1.95216435 0 0 Z " fill="#6D4D3A" transform="translate(66,99)"/>
  <path d="M0 0 C5.53698836 1.29196395 5.53698836 1.29196395 7.0703125 3.63671875 C9.27266404 7.91906896 10.58769844 11.06333308 10 16 C9.67 16.66 9.34 17.32 9 18 C8.01 18 7.02 18 6 18 C5.72736328 16.77023438 5.72736328 16.77023438 5.44921875 15.515625 C5.07216797 13.89914063 5.07216797 13.89914063 4.6875 12.25 C4.44386719 11.18265625 4.20023437 10.1153125 3.94921875 9.015625 C3.01840693 6.05847797 1.9159065 4.38280808 0 2 C0 1.34 0 0.68 0 0 Z " fill="#AD846E" transform="translate(113,102)"/>
  <path d="M0 0 C-0.50603992 2.16874252 -0.99983813 3.99967627 -2 6 C-2.721875 6.391875 -3.44375 6.78375 -4.1875 7.1875 C-7.39956972 9.25750049 -9.32838417 11.59263735 -11.66796875 14.57421875 C-12.10753906 15.04472656 -12.54710937 15.51523438 -13 16 C-13.66 16 -14.32 16 -15 16 C-15.3125 13.8125 -15.3125 13.8125 -15 11 C-11.90076532 7.22280773 -5.256052 0 0 0 Z " fill="#AE8670" transform="translate(71,93)"/>
  <path d="M0 0 C0.66 0 1.32 0 2 0 C1.47831428 4.17348578 -0.09605923 7.32499351 -2.01171875 10.99609375 C-3.28778379 13.58352999 -4.17212049 16.24040164 -5 19 C-6.32 18.67 -7.64 18.34 -9 18 C-8.42302407 14.36505167 -7.45452894 11.62531558 -5.625 8.4375 C-5.20476562 7.69371094 -4.78453125 6.94992188 -4.3515625 6.18359375 C-3.00232193 4.00375132 -1.65909317 1.9563104 0 0 Z " fill="#AE866F" transform="translate(87,103)"/>
  <path d="M0 0 C-0.33 0.66 -0.66 1.32 -1 2 C-3.81666902 2.76465246 -6.582932 3.41511736 -9.4375 4 C-10.66025635 4.26055176 -10.66025635 4.26055176 -11.90771484 4.52636719 C-14.26995115 5.02709177 -16.63429651 5.51595266 -19 6 C-20.12792969 6.23203125 -21.25585938 6.4640625 -22.41796875 6.703125 C-24.60988041 7.14593544 -26.80455106 7.5750744 -29 8 C-28.67 7.01 -28.34 6.02 -28 5 C-26.06982422 4.20043945 -26.06982422 4.20043945 -23.5546875 3.61328125 C-22.64203125 3.39736328 -21.729375 3.18144531 -20.7890625 2.95898438 C-19.82742187 2.74564453 -18.86578125 2.53230469 -17.875 2.3125 C-16.9365625 2.08755859 -15.998125 1.86261719 -15.03125 1.63085938 C-9.90201086 0.44912291 -5.26117035 -0.26961676 0 0 Z " fill="#7F6247" transform="translate(90,54)"/>
  <path d="M0 0 C1.98 0.66 3.96 1.32 6 2 C5.45276317 5.37462715 4.9451 7.08235 3 10 C0.0625 9.1875 0.0625 9.1875 -3 8 C-3.33 7.01 -3.66 6.02 -4 5 C-2.0625 2.3125 -2.0625 2.3125 0 0 Z " fill="#6E4E3A" transform="translate(77,106)"/>
  <path d="M0 0 C1.859375 0.23828125 1.859375 0.23828125 4 1 C7.10122235 5.54654511 8.56310544 10.50972199 8 16 C6.68 15.67 5.36 15.34 4 15 C3.71125 13.824375 3.4225 12.64875 3.125 11.4375 C2.16686279 7.5981073 1.10794489 3.7986682 0 0 Z " fill="#AD856E" transform="translate(101,106)"/>
  <path d="M0 0 C2.97 0.495 2.97 0.495 6 1 C5.01 3.64 4.02 6.28 3 9 C0.69 8.67 -1.62 8.34 -4 8 C-2.87548273 5.0280615 -1.77706209 2.66559313 0 0 Z " fill="#6E4E3A" transform="translate(87,110)"/>
  <path d="M0 0 C1.485 0.99 1.485 0.99 3 2 C3.29296875 5.2578125 3.29296875 5.2578125 3.1875 9.125 C3.14689453 11.04699219 3.14689453 11.04699219 3.10546875 13.0078125 C3.07066406 13.99523437 3.03585938 14.98265625 3 16 C2.34 16.33 1.68 16.66 1 17 C-0.72519266 13.26321906 -1.24853628 10.3560768 -1.1875 6.25 C-1.17783203 4.80367187 -1.17783203 4.80367187 -1.16796875 3.328125 C-1 1 -1 1 0 0 Z " fill="#7B5E4C" transform="translate(105,59)"/>
  <path d="M0 0 C1 2.75 1 2.75 1 5 C-1.49361571 3.79618552 -3.68143083 2.54571278 -6 1 C-7.9896995 0.60986284 -9.99019869 0.26797351 -12 0 C-12.33 -0.99 -12.66 -1.98 -13 -3 C-8.00064511 -4.87475808 -4.07936547 -3.06905533 0 0 Z " fill="#AD866F" transform="translate(138,92)"/>
  <path d="M0 0 C0.66 0.33 1.32 0.66 2 1 C2.05384521 3.29141286 2.09272087 5.58318188 2.125 7.875 C2.14820312 9.15117188 2.17140625 10.42734375 2.1953125 11.7421875 C2 15 2 15 0 17 C-1.75559942 15.24440058 -1.13221919 12.96417558 -1.13671875 10.62890625 C-1.13285156 9.92636719 -1.12898438 9.22382812 -1.125 8.5 C-1.12886719 7.79746094 -1.13273437 7.09492187 -1.13671875 6.37109375 C-1.12661378 1.12661378 -1.12661378 1.12661378 0 0 Z " fill="#715340" transform="translate(90,59)"/>
  <path d="M0 0 C0.33 0 0.66 0 1 0 C2.01894076 5.84888043 2.11798453 11.50919169 2.0625 17.4375 C2.05798828 18.35982422 2.05347656 19.28214844 2.04882812 20.23242188 C2.03713938 22.48835048 2.02075455 24.74413967 2 27 C1.67 27 1.34 27 1 27 C0.67 24.36 0.34 21.72 0 19 C-1.32 18.67 -2.64 18.34 -4 18 C-3.01 18 -2.02 18 -1 18 C-0.505 9.09 -0.505 9.09 0 0 Z " fill="#7F6B61" transform="translate(74,139)"/>
  <path d="M0 0 C0.66 1.32 1.32 2.64 2 4 C-0.31 5.65 -2.62 7.3 -5 9 C-5.66 7.35 -6.32 5.7 -7 4 C-2.25 0 -2.25 0 0 0 Z " fill="#6D4D3A" transform="translate(64,92)"/>
  <path d="M0 0 C0.33 0 0.66 0 1 0 C0.88618103 2.93832645 0.75943449 5.8751065 0.625 8.8125 C0.5940625 9.64587891 0.563125 10.47925781 0.53125 11.33789062 C0.49257812 12.14033203 0.45390625 12.94277344 0.4140625 13.76953125 C0.3826416 14.50792236 0.3512207 15.24631348 0.31884766 16.00708008 C0 18 0 18 -2 21 C-2.05420701 18.43721301 -2.09377007 15.87558517 -2.125 13.3125 C-2.15013672 12.2306543 -2.15013672 12.2306543 -2.17578125 11.12695312 C-2.21391569 6.95123219 -1.8789919 3.7505862 0 0 Z " fill="#725A4D" transform="translate(77,125)"/>
  <path d="M0 0 C1.98 0 3.96 0 6 0 C6 0.66 6 1.32 6 2 C6.639375 2.2475 7.27875 2.495 7.9375 2.75 C10 4 10 4 11 8 C7.37 6.02 3.74 4.04 0 2 C0 1.34 0 0.68 0 0 Z " fill="#AB836D" transform="translate(120,97)"/>
  <path d="M0 0 C-0.33 0.66 -0.66 1.32 -1 2 C-3.28515625 2.4140625 -3.28515625 2.4140625 -6.0625 2.625 C-6.98160156 2.69976562 -7.90070313 2.77453125 -8.84765625 2.8515625 C-9.55792969 2.90054688 -10.26820312 2.94953125 -11 3 C-11 2.34 -11 1.68 -11 1 C-7.32589215 -0.17571451 -3.83070817 -0.07366746 0 0 Z " fill="#72533E" transform="translate(90,54)"/>
</svg>